<svg width="15" height="15" viewBox="0 0 15 15" fill="none" xmlns="http://www.w3.org/2000/svg">
<path d="M11.7501 13.75L7.5 9.4999L3.2499 13.75C2.69783 14.3021 1.80207 14.3021 1.25 13.75C0.697932 13.1979 0.697931 12.3022 1.25 11.7501L5.5001 7.5L1.25 3.2499C0.697932 2.69783 0.697932 1.80207 1.25 1.25C1.80207 0.697931 2.69783 0.697931 3.2499 1.25L7.5 5.5001L11.7501 1.25C12.3022 0.697931 13.1979 0.697931 13.75 1.25C14.3021 1.80207 14.3021 2.69783 13.75 3.2499L9.4999 7.5L13.75 11.7501C14.3021 12.3022 14.3021 13.1979 13.75 13.75C13.1979 14.3021 12.3022 14.3021 11.7501 13.75Z" fill="#999999"/>
</svg>
